# xmcd CD database file
#
# Track frame offsets:
#	150
#	28521
#	62159
#	88004
#
# Disc length: 1453 seconds
#
# Revision: 0
# Processed by: cddbd v1.5.2PL0 Copyright (c) Steve Scherf et al.
# Submitted via: CDex 1.70beta2
#
DISCID=2b05ab04
DTITLE=Polly Gibbons - Live At Ronnie Scotts
DYEAR=2006
DGENRE=Blues
TTITLE0=Come Rain Or Come Shine
TTITLE1=Saving  Grace
TTITLE2=Honeysuckle Rose
TTITLE3=What Would I Do Without You
EXTD=YEAR: 2006
EXTT0=
EXTT1=
EXTT2=
EXTT3=
PLAYORDER=
